<svg width="402" height="705" viewBox="0 0 402 705" fill="none" xmlns="http://www.w3.org/2000/svg">
<g id="intro">
<g id="right-arm">
<g id="Vector">
<path d="M311 393.1V544.3C311 553.5 303.6 560.9 294.4 560.9C285.2 560.9 277.8 553.5 277.8 544.3V393.1" fill="#5BB889"/>
<path d="M311 393.1V544.3C311 553.5 303.6 560.9 294.4 560.9C285.2 560.9 277.8 553.5 277.8 544.3V393.1" stroke="#1E193B" stroke-width="3" stroke-miterlimit="10" stroke-linecap="round" stroke-linejoin="round"/>
</g>
<g id="Vector_2" opacity="0.1">
<path d="M311 393.1V544.3C311 553.5 303.6 560.9 294.4 560.9C285.2 560.9 277.8 553.5 277.8 544.3V393.1" fill="#1E193B"/>
<path d="M311 393.1V544.3C311 553.5 303.6 560.9 294.4 560.9C285.2 560.9 277.8 553.5 277.8 544.3V393.1" stroke="#1E193B" stroke-width="3" stroke-miterlimit="10" stroke-linecap="round" stroke-linejoin="round"/>
</g>
</g>
<path id="Vector_3" d="M220.9 461.6V645.5C220.9 654.7 228.3 662.1 237.5 662.1C246.7 662.1 254.1 654.7 254.1 645.5V461.6H220.9Z" fill="#5BB889" stroke="#1E193B" stroke-width="3" stroke-miterlimit="10" stroke-linecap="round" stroke-linejoin="round"/>
<path id="Vector_4" opacity="0.1" d="M220.9 461.6V645.5C220.9 654.7 228.3 662.1 237.5 662.1C246.7 662.1 254.1 654.7 254.1 645.5V461.6H220.9Z" fill="#1E193B" stroke="#1E193B" stroke-width="3" stroke-miterlimit="10" stroke-linecap="round" stroke-linejoin="round"/>
<path id="Vector_5" opacity="0.1" d="M220.9 522.9C232.2 522.6 243.3 521.3 254.1 519V461.6H220.9V522.9Z" fill="#1E193B" stroke="#1E193B" stroke-width="3" stroke-miterlimit="10" stroke-linecap="round" stroke-linejoin="round"/>
<path id="Vector_6" d="M220.9 635.9V702.6H318.6C318.6 692.6 311.8 683.9 302.1 681.5L262 671.3C257.3 670.1 254 665.9 254 661V635.9H220.9Z" fill="#E29F02" stroke="#1E193B" stroke-width="3" stroke-miterlimit="10" stroke-linecap="round" stroke-linejoin="round"/>
<path id="Vector_7" opacity="0.1" d="M220.9 635.9V702.6H318.6C318.6 692.6 311.8 683.9 302.1 681.5L262 671.3C257.3 670.1 254 665.9 254 661V635.9H220.9Z" fill="#1E193B" stroke="#1E193B" stroke-width="3" stroke-miterlimit="10" stroke-linecap="round" stroke-linejoin="round"/>
<path id="Vector_8" d="M216 119C114.6 119 32.5 201.2 32.5 302.5C32.5 390.1 93.9 463.4 176 481.6V645.5C176 654.7 183.4 662.1 192.6 662.1C201.8 662.1 209.2 654.7 209.2 645.5V485.9C211.5 486 213.8 486 216.1 486C317.5 486 399.6 403.8 399.6 302.5C399.6 201.2 317.3 119 216 119Z" fill="#5BB889" stroke="#1E193B" stroke-width="3" stroke-miterlimit="10" stroke-linecap="round" stroke-linejoin="round"/>
<g id="eyes">
<path id="Vector_9" d="M334.5 287.4C343.723 287.4 351.2 279.923 351.2 270.7C351.2 261.477 343.723 254 334.5 254C325.277 254 317.8 261.477 317.8 270.7C317.8 279.923 325.277 287.4 334.5 287.4Z" fill="white" stroke="#1E193B" stroke-width="3" stroke-miterlimit="10" stroke-linecap="round" stroke-linejoin="round"/>
<path id="ball" d="M334.5 277.3C338.145 277.3 341.1 274.345 341.1 270.7C341.1 267.055 338.145 264.1 334.5 264.1C330.855 264.1 327.9 267.055 327.9 270.7C327.9 274.345 330.855 277.3 334.5 277.3Z" fill="#1E193B" stroke="#1E193B" stroke-width="3" stroke-miterlimit="10" stroke-linecap="round" stroke-linejoin="round"/>
<path id="Vector_10" d="M354.2 328.8C363.423 328.8 370.9 321.323 370.9 312.1C370.9 302.877 363.423 295.4 354.2 295.4C344.977 295.4 337.5 302.877 337.5 312.1C337.5 321.323 344.977 328.8 354.2 328.8Z" fill="white" stroke="#1E193B" stroke-width="3" stroke-miterlimit="10" stroke-linecap="round" stroke-linejoin="round"/>
<path id="ball_2" d="M354.2 318.7C357.845 318.7 360.8 315.745 360.8 312.1C360.8 308.455 357.845 305.5 354.2 305.5C350.555 305.5 347.6 308.455 347.6 312.1C347.6 315.745 350.555 318.7 354.2 318.7Z" fill="#1E193B" stroke="#1E193B" stroke-width="3" stroke-miterlimit="10" stroke-linecap="round" stroke-linejoin="round"/>
<path id="Vector_11" d="M314.7 328.8C323.923 328.8 331.4 321.323 331.4 312.1C331.4 302.877 323.923 295.4 314.7 295.4C305.477 295.4 298 302.877 298 312.1C298 321.323 305.477 328.8 314.7 328.8Z" fill="white" stroke="#1E193B" stroke-width="3" stroke-miterlimit="10" stroke-linecap="round" stroke-linejoin="round"/>
<path id="ball_3" d="M314.7 318.7C318.345 318.7 321.3 315.745 321.3 312.1C321.3 308.455 318.345 305.5 314.7 305.5C311.055 305.5 308.1 308.455 308.1 312.1C308.1 315.745 311.055 318.7 314.7 318.7Z" fill="#1E193B" stroke="#1E193B" stroke-width="3" stroke-miterlimit="10" stroke-linecap="round" stroke-linejoin="round"/>
<path id="Vector_12" d="M274.7 328.8C283.923 328.8 291.4 321.323 291.4 312.1C291.4 302.877 283.923 295.4 274.7 295.4C265.477 295.4 258 302.877 258 312.1C258 321.323 265.477 328.8 274.7 328.8Z" fill="white" stroke="#1E193B" stroke-width="3" stroke-miterlimit="10" stroke-linecap="round" stroke-linejoin="round"/>
<path id="ball_4" d="M274.7 318.7C278.345 318.7 281.3 315.745 281.3 312.1C281.3 308.455 278.345 305.5 274.7 305.5C271.055 305.5 268.1 308.455 268.1 312.1C268.1 315.745 271.055 318.7 274.7 318.7Z" fill="#1E193B" stroke="#1E193B" stroke-width="3" stroke-miterlimit="10" stroke-linecap="round" stroke-linejoin="round"/>
<path id="Vector_13" d="M294.5 287.4C303.723 287.4 311.2 279.923 311.2 270.7C311.2 261.477 303.723 254 294.5 254C285.277 254 277.8 261.477 277.8 270.7C277.8 279.923 285.277 287.4 294.5 287.4Z" fill="white" stroke="#1E193B" stroke-width="3" stroke-miterlimit="10" stroke-linecap="round" stroke-linejoin="round"/>
<path id="ball_5" d="M294.5 277.3C298.145 277.3 301.1 274.345 301.1 270.7C301.1 267.055 298.145 264.1 294.5 264.1C290.855 264.1 287.9 267.055 287.9 270.7C287.9 274.345 290.855 277.3 294.5 277.3Z" fill="#1E193B" stroke="#1E193B" stroke-width="3" stroke-miterlimit="10" stroke-linecap="round" stroke-linejoin="round"/>
</g>
<g id="Group">
<path id="Vector_14" d="M130.6 257.2C105.6 257.2 85.3 277.5 85.3 302.5C85.3 327.5 105.6 347.8 130.6 347.8" stroke="#1E193B" stroke-width="3" stroke-miterlimit="10" stroke-linecap="round" stroke-linejoin="round"/>
<path id="Vector_15" d="M117.8 312.8C123.5 312.8 128.1 308.2 128.1 302.5C128.1 296.8 123.5 292.2 117.8 292.2" stroke="#1E193B" stroke-width="3" stroke-miterlimit="10" stroke-linecap="round" stroke-linejoin="round"/>
</g>
<path id="Vector_16" d="M281.6 352.7H347.3" stroke="#1E193B" stroke-width="3" stroke-miterlimit="10" stroke-linecap="round" stroke-linejoin="round"/>
<path id="Vector_17" d="M175.9 635.9V702.6H273.6C273.6 692.6 266.8 683.9 257.1 681.5L217 671.3C212.3 670.1 209 665.9 209 661V635.9H175.9Z" fill="#E29F02" stroke="#1E193B" stroke-width="3" stroke-miterlimit="10" stroke-linecap="round" stroke-linejoin="round"/>
<g id="Group_2">
<path id="Vector_18" d="M339.9 235C336.7 235 333.4 234.1 330.7 232.2C330.6 232.1 330.5 232.1 330.5 232.1C327.2 229.3 325 225.2 325 220.6C325 216.5 326.3 211.8 330.5 211.8C334.6 211.8 336 216.4 336 220.6C336 225.2 333.8 229.5 330.5 232.1C330.5 232.1 330.4 232.2 330.3 232.2C324.8 236 317.4 236 311.9 232.2C311.8 232.1 311.7 232.1 311.7 232.1C308.4 229.3 306.2 225.2 306.2 220.6C306.2 216.5 307.5 211.8 311.7 211.8C315.8 211.8 317.2 216.4 317.2 220.6C317.2 225.2 315.1 229.5 311.7 232.1C311.7 232.1 311.6 232.2 311.5 232.2C306 236 298.6 236 293.1 232.2C293 232.1 292.9 232.1 292.9 232.1C289.6 229.3 287.4 225.2 287.4 220.6C287.4 216.5 288.7 211.8 292.9 211.8C297 211.8 298.4 216.4 298.4 220.6C298.4 225.2 296.2 229.5 292.9 232.1C292.9 232.1 292.8 232.2 292.7 232.2C289.9 234 286.7 235 283.5 235" stroke="#1E193B" stroke-width="3" stroke-miterlimit="10" stroke-linecap="round" stroke-linejoin="round"/>
</g>
<g id="hat">
<path id="Vector_19" d="M11.6 106.5C-2.9 122.6 -1.6 147.3 14.5 161.8L33.2 178.6L85.6 120.4L66.9 103.6C50.8 89.1 26 90.4 11.6 106.5Z" fill="#E29F02" stroke="#1E193B" stroke-width="3" stroke-miterlimit="10" stroke-linecap="round" stroke-linejoin="round"/>
<path id="Vector_20" d="M96.8 107.9L21.9 191.1C17.3 196.2 17.7 204 22.8 208.6C27.9 213.2 35.7 212.8 40.3 207.7L115.2 124.5C119.8 119.4 119.4 111.6 114.3 107C109.2 102.4 101.3 102.8 96.8 107.9Z" fill="#E29F02" stroke="#1E193B" stroke-width="3" stroke-miterlimit="10" stroke-linecap="round" stroke-linejoin="round"/>
<path id="Vector_21" d="M74.6521 110.635L22.7969 168.225L33.6461 177.994L85.5014 120.404L74.6521 110.635Z" fill="#E29F02" stroke="#1E193B" stroke-width="3" stroke-miterlimit="10" stroke-linecap="round" stroke-linejoin="round"/>
</g>
<g id="left-arm">
<path d="M161.3 413.1V554.3C161.3 563.5 153.9 570.9 144.7 570.9C135.5 570.9 128.1 563.5 128.1 554.3V413.1" fill="#5BB889"/>
<path d="M161.3 413.1V554.3C161.3 563.5 153.9 570.9 144.7 570.9C135.5 570.9 128.1 563.5 128.1 554.3V413.1" stroke="#1E193B" stroke-width="3" stroke-miterlimit="10" stroke-linecap="round" stroke-linejoin="round"/>
</g>
<g id="Vector_22">
<path d="M233.2 123V34.9H304.8C313.9 34.9 321.3 27.5 321.3 18.4C321.3 9.29999 313.9 1.89999 304.8 1.89999H233.2H227.7C212.6 1.89999 200.3 14.2 200.3 29.3V34.8V122.9" fill="#5BB889"/>
<path d="M233.2 123V34.9H304.8C313.9 34.9 321.3 27.5 321.3 18.4C321.3 9.29999 313.9 1.89999 304.8 1.89999H233.2H227.7C212.6 1.89999 200.3 14.2 200.3 29.3V34.8V122.9" stroke="#1E193B" stroke-width="3" stroke-miterlimit="10" stroke-linecap="round" stroke-linejoin="round"/>
</g>
<g id="Group_3">
<path id="Vector_23" d="M304.8 35C313.913 35 321.3 27.6127 321.3 18.5C321.3 9.3873 313.913 2 304.8 2C295.687 2 288.3 9.3873 288.3 18.5C288.3 27.6127 295.687 35 304.8 35Z" fill="white" stroke="#1E193B" stroke-width="3" stroke-miterlimit="10" stroke-linecap="round" stroke-linejoin="round"/>
<path id="ball_6" d="M304.8 25C308.39 25 311.3 22.0899 311.3 18.5C311.3 14.9101 308.39 12 304.8 12C301.21 12 298.3 14.9101 298.3 18.5C298.3 22.0899 301.21 25 304.8 25Z" fill="#1E193B" stroke="#1E193B" stroke-width="3" stroke-miterlimit="10" stroke-linecap="round" stroke-linejoin="round"/>
</g>
</g>
</svg>
