<svg width="21000" height="3000" viewBox="0 0 21000 3000" fill="none" xmlns="http://www.w3.org/2000/svg">
<g clip-path="url(#clip0)">
<path d="M23879.3 2961.91L22894.4 1691.21C22858.3 1644.72 22773.6 1646.57 22740.8 1694.57L22397.5 2196.15C22364.6 2244.15 22279.9 2246 22243.9 2199.51L21995.5 1879.09C21959.5 1832.6 21874.8 1834.46 21841.9 1882.46L21693.5 2099.31C21660.7 2147.31 21576 2149.17 21539.9 2102.67L21221 1691.21C21185 1644.72 21100.3 1646.57 21067.4 1694.57L20925.3 1902.13C20892.5 1950.13 20807.8 1951.99 20771.7 1905.5L20605.7 1691.21C20569.6 1644.72 20484.9 1646.57 20452.1 1694.57L20152.3 2132.52C20119.4 2180.52 20034.7 2182.37 19998.7 2135.88C19962.7 2089.39 19878 2091.25 19845.1 2139.25L19654 2418.45C19621.2 2466.44 19536.5 2468.3 19500.4 2421.81L18934.1 1691.21C18898.1 1644.72 18813.4 1646.57 18780.5 1694.57L18490.4 2118.39C18457.6 2166.39 18372.9 2168.25 18336.8 2121.76L17614.6 1189.97C17578.6 1143.48 17493.9 1145.34 17461 1193.34L16892.9 2023.39C16860 2071.39 16775.3 2073.25 16739.3 2026.75L16479.2 1691.2C16443.2 1644.7 16358.5 1646.56 16325.6 1694.56L15982.3 2196.13C15949.4 2244.13 15864.7 2245.99 15828.7 2199.5L15580.3 1879.08C15544.3 1832.59 15459.6 1834.45 15426.7 1882.45L15278.3 2099.3C15245.5 2147.3 15160.8 2149.15 15124.7 2102.66L14805.8 1691.2C14769.8 1644.7 14685.1 1646.56 14652.2 1694.56L14510.1 1902.12C14477.3 1950.12 14392.6 1951.98 14356.6 1905.48L14190.5 1691.2C14154.4 1644.7 14069.7 1646.56 14036.9 1694.56L13737.1 2132.51C13704.3 2180.5 13619.6 2182.36 13583.5 2135.87C13547.5 2089.38 13462.8 2091.24 13429.9 2139.24L13238.8 2418.43C13206 2466.43 13121.3 2468.29 13085.2 2421.8L12518.9 1691.2C12482.9 1644.7 12398.2 1646.56 12365.3 1694.56L12075.2 2118.38C12042.4 2166.38 11957.7 2168.24 11921.6 2121.75L11199.4 1189.96C11163.4 1143.47 11078.7 1145.33 11045.8 1193.32L10574.2 1882.42L10425.9 1691.18C10389.9 1644.69 10305.2 1646.55 10272.4 1694.55L9929.04 2196.12C9896.19 2244.12 9811.48 2245.98 9775.44 2199.49L9527.08 1879.07C9491.05 1832.58 9406.35 1834.44 9373.49 1882.43L9225.07 2099.28C9192.22 2147.28 9107.51 2149.14 9071.48 2102.65L8752.54 1691.18C8716.5 1644.69 8631.81 1646.55 8598.95 1694.55L8456.89 1902.11C8424.04 1950.11 8339.33 1951.96 8303.29 1905.47L8137.2 1691.18C8101.17 1644.69 8016.47 1646.55 7983.61 1694.55L7683.85 2132.49C7651.01 2180.49 7566.29 2182.35 7530.26 2135.86C7494.22 2089.37 7409.53 2091.22 7376.67 2139.22L7185.56 2418.42C7152.71 2466.42 7068 2468.28 7031.97 2421.79L6465.66 1691.18C6429.63 1644.69 6344.93 1646.55 6312.07 1694.55L6021.98 2118.37C5989.13 2166.37 5904.42 2168.22 5868.39 2121.73L5146.16 1189.95C5110.12 1143.46 5025.42 1145.31 4992.56 1193.31L4424.43 2023.36C4391.58 2071.36 4306.87 2073.22 4270.83 2026.73L4010.74 1691.17C3974.7 1644.68 3890 1646.54 3857.14 1694.53L3513.83 2196.11C3480.99 2244.11 3396.27 2245.97 3360.24 2199.47L3111.88 1879.06C3075.84 1832.57 2991.15 1834.42 2958.29 1882.42L2809.86 2099.27C2777.02 2147.27 2692.3 2149.13 2656.27 2102.64L2337.33 1691.17C2301.29 1644.68 2216.6 1646.54 2183.74 1694.53L2041.68 1902.1C2008.84 1950.09 1924.12 1951.95 1888.09 1905.46L1722 1691.17C1685.96 1644.68 1601.26 1646.54 1568.4 1694.53L1268.64 2132.48C1235.8 2180.48 1151.09 2182.34 1115.05 2135.85C1079.01 2089.35 994.318 2091.21 961.458 2139.21L770.351 2418.41C737.506 2466.41 652.794 2468.27 616.758 2421.77L50.4566 1691.17C14.4207 1644.68 -70.2754 1646.54 -103.136 1694.53L-393.229 2118.36C-426.074 2166.35 -510.786 2168.21 -546.822 2121.72L-1268.74 1189.97C-1304.77 1143.48 -1389.47 1145.34 -1422.33 1193.34L-2635.13 2965.27C-2667.91 3013.18 -2624.95 3071.89 -2557.11 3071.89H23803.7C23873.7 3071.89 23916.4 3009.78 23879.3 2961.91Z" fill="#2A336C"/>
<path d="M23879.3 2961.91L22894.4 1691.21C22858.3 1644.72 22773.6 1646.57 22740.8 1694.57L22397.5 2196.15C22364.6 2244.15 22279.9 2246 22243.9 2199.51L21995.5 1879.09C21959.5 1832.6 21874.8 1834.46 21841.9 1882.46L21693.5 2099.31C21660.7 2147.31 21576 2149.17 21539.9 2102.67L21221 1691.21C21185 1644.72 21100.3 1646.57 21067.4 1694.57L20925.3 1902.13C20892.5 1950.13 20807.8 1951.99 20771.7 1905.5L20605.7 1691.21C20569.6 1644.72 20484.9 1646.57 20452.1 1694.57L20152.3 2132.52C20119.4 2180.52 20034.7 2182.37 19998.7 2135.88C19962.7 2089.39 19878 2091.25 19845.1 2139.25L19654 2418.45C19621.2 2466.44 19536.5 2468.3 19500.4 2421.81L18934.1 1691.21C18898.1 1644.72 18813.4 1646.57 18780.5 1694.57L18490.4 2118.39C18457.6 2166.39 18372.9 2168.25 18336.8 2121.76L17614.6 1189.97C17578.6 1143.48 17493.9 1145.34 17461 1193.34L16892.9 2023.39C16860 2071.39 16775.3 2073.25 16739.3 2026.75L16479.2 1691.2C16443.2 1644.7 16358.5 1646.56 16325.6 1694.56L15982.3 2196.13C15949.4 2244.13 15864.7 2245.99 15828.7 2199.5L15580.3 1879.08C15544.3 1832.59 15459.6 1834.45 15426.7 1882.45L15278.3 2099.3C15245.5 2147.3 15160.8 2149.15 15124.7 2102.66L14805.8 1691.2C14769.8 1644.7 14685.1 1646.56 14652.2 1694.56L14510.1 1902.12C14477.3 1950.12 14392.6 1951.98 14356.6 1905.48L14190.5 1691.2C14154.4 1644.7 14069.7 1646.56 14036.9 1694.56L13737.1 2132.51C13704.3 2180.5 13619.6 2182.36 13583.5 2135.87C13547.5 2089.38 13462.8 2091.24 13429.9 2139.24L13238.8 2418.43C13206 2466.43 13121.3 2468.29 13085.2 2421.8L12518.9 1691.2C12482.9 1644.7 12398.2 1646.56 12365.3 1694.56L12075.2 2118.38C12042.4 2166.38 11957.7 2168.24 11921.6 2121.75L11199.4 1189.96C11163.4 1143.47 11078.7 1145.33 11045.8 1193.32L10574.2 1882.42L10425.9 1691.18C10389.9 1644.69 10305.2 1646.55 10272.4 1694.55L9929.04 2196.12C9896.19 2244.12 9811.48 2245.98 9775.44 2199.49L9527.08 1879.07C9491.05 1832.58 9406.35 1834.44 9373.49 1882.43L9225.07 2099.28C9192.22 2147.28 9107.51 2149.14 9071.48 2102.65L8752.54 1691.18C8716.5 1644.69 8631.81 1646.55 8598.95 1694.55L8456.89 1902.11C8424.04 1950.11 8339.33 1951.96 8303.29 1905.47L8137.2 1691.18C8101.17 1644.69 8016.47 1646.55 7983.61 1694.55L7683.85 2132.49C7651.01 2180.49 7566.29 2182.35 7530.26 2135.86C7494.22 2089.37 7409.53 2091.22 7376.67 2139.22L7185.56 2418.42C7152.71 2466.42 7068 2468.28 7031.97 2421.79L6465.66 1691.18C6429.63 1644.69 6344.93 1646.55 6312.07 1694.55L6021.98 2118.37C5989.13 2166.37 5904.42 2168.22 5868.39 2121.73L5146.16 1189.95C5110.12 1143.46 5025.42 1145.31 4992.56 1193.31L4424.43 2023.36C4391.58 2071.36 4306.87 2073.22 4270.83 2026.73L4010.74 1691.17C3974.7 1644.68 3890 1646.54 3857.14 1694.53L3513.83 2196.11C3480.99 2244.11 3396.27 2245.97 3360.24 2199.47L3111.88 1879.06C3075.84 1832.57 2991.15 1834.42 2958.29 1882.42L2809.86 2099.27C2777.02 2147.27 2692.3 2149.13 2656.27 2102.64L2337.33 1691.17C2301.29 1644.68 2216.6 1646.54 2183.74 1694.53L2041.68 1902.1C2008.84 1950.09 1924.12 1951.95 1888.09 1905.46L1722 1691.17C1685.96 1644.68 1601.26 1646.54 1568.4 1694.53L1268.64 2132.48C1235.8 2180.48 1151.09 2182.34 1115.05 2135.85C1079.01 2089.35 994.318 2091.21 961.458 2139.21L770.351 2418.41C737.506 2466.41 652.794 2468.27 616.758 2421.77L50.4566 1691.17C14.4207 1644.68 -70.2754 1646.54 -103.136 1694.53L-393.229 2118.36C-426.074 2166.35 -510.786 2168.21 -546.822 2121.72L-1268.74 1189.97C-1304.77 1143.48 -1389.47 1145.34 -1422.33 1193.34L-2635.13 2965.27C-2667.91 3013.18 -2624.95 3071.89 -2557.11 3071.89H23803.7C23873.7 3071.89 23916.4 3009.78 23879.3 2961.91Z" stroke="#140E3C" stroke-width="3" stroke-miterlimit="10" stroke-linecap="round" stroke-linejoin="round"/>
<path d="M5850.14 1382.15C5850.14 1336.48 5881.93 1296.79 5928.63 1276.69C5935.88 1273.56 5933.92 1264.81 5925.78 1263.88C5919.83 1263.21 5913.76 1262.8 5907.6 1262.7C5825.81 1261.45 5757.63 1314.67 5756.62 1380.63C5755.59 1447.31 5822.29 1501.61 5904.73 1501.61C5911.92 1501.61 5918.99 1501.2 5925.9 1500.4C5933.98 1499.47 5935.85 1490.7 5928.64 1487.6C5881.93 1467.5 5850.14 1427.83 5850.14 1382.15Z" fill="white" stroke="#140E3C" stroke-width="3" stroke-miterlimit="10" stroke-linecap="round" stroke-linejoin="round"/>
</g>
<defs>
<clipPath id="clip0">
<rect width="21000" height="3000" fill="white"/>
</clipPath>
</defs>
</svg>
