<svg width="21000" height="3000" viewBox="0 0 21000 3000" fill="none" xmlns="http://www.w3.org/2000/svg">
<g clip-path="url(#clip0)">
<path d="M18084 2845.03L17703.8 2158.38C17689.9 2133.26 17657.2 2134.26 17644.5 2160.2L17512 2431.24C17499.3 2457.18 17466.6 2458.18 17452.7 2433.06L17356.8 2259.91C17342.9 2234.79 17310.2 2235.8 17297.6 2261.74L17240.3 2378.91C17227.6 2404.85 17194.9 2405.85 17181 2380.73L17057.9 2158.38C17044 2133.26 17011.3 2134.26 16998.6 2160.2L16943.8 2272.36C16931.1 2298.3 16898.4 2299.3 16884.5 2274.18L16820.4 2158.38C16806.4 2133.26 16773.8 2134.26 16761.1 2160.2L16645.4 2396.85C16632.7 2422.79 16600 2423.8 16586.1 2398.67C16572.2 2373.55 16539.5 2374.55 16526.8 2400.49L16453 2551.37C16440.4 2577.31 16407.7 2578.31 16393.8 2553.19L16175.2 2158.38C16161.3 2133.26 16128.6 2134.26 16115.9 2160.2L16003.9 2389.23C15991.2 2415.17 15958.5 2416.17 15944.6 2391.05L15665.9 1887.54C15652 1862.42 15619.3 1863.43 15606.6 1889.36L15387.3 2337.91C15374.6 2363.85 15341.9 2364.85 15328 2339.73L15227.6 2158.41C15213.7 2133.28 15181 2134.29 15168.3 2160.23L15035.8 2431.27C15023.1 2457.2 14990.4 2458.21 14976.5 2433.09L14880.7 2259.94C14866.7 2234.82 14834.1 2235.82 14821.4 2261.76L14764.1 2378.94C14751.4 2404.88 14718.7 2405.88 14704.8 2380.76L14581.7 2158.41C14567.8 2133.28 14535.1 2134.29 14522.4 2160.23L14467.6 2272.38C14454.9 2298.32 14422.2 2299.33 14408.3 2274.2L14344.2 2158.41C14330.3 2133.28 14297.6 2134.29 14284.9 2160.23L14169.2 2396.88C14156.5 2422.82 14123.8 2423.82 14109.9 2398.7C14096 2373.58 14063.3 2374.58 14050.6 2400.52L13976.9 2551.39C13964.2 2577.33 13931.5 2578.34 13917.6 2553.21L13699 2158.41C13685.1 2133.28 13652.4 2134.29 13639.7 2160.23L13527.7 2389.26C13515.1 2415.2 13482.4 2416.2 13468.5 2391.08L13189.7 1887.57C13175.8 1862.45 13143.1 1863.45 13130.4 1889.39L12942.9 2272.82L12755.5 1889.39C12742.8 1863.45 12710.1 1862.45 12696.2 1887.57L12417.4 2391.08C12403.5 2416.2 12370.8 2415.2 12358.1 2389.26L12246.2 2160.23C12233.5 2134.29 12200.8 2133.28 12186.9 2158.41L11968.3 2553.21C11954.4 2578.34 11921.7 2577.33 11909 2551.39L11835.3 2400.52C11822.6 2374.58 11789.9 2373.58 11776 2398.7C11762.1 2423.82 11729.4 2422.82 11716.7 2396.88L11601 2160.23C11588.3 2134.29 11555.6 2133.28 11541.7 2158.41L11477.6 2274.2C11463.7 2299.33 11431 2298.32 11418.3 2272.38L11363.5 2160.23C11350.8 2134.29 11318.1 2133.28 11304.2 2158.41L11181.1 2380.76C11167.2 2405.88 11134.5 2404.88 11121.8 2378.94L11064.5 2261.76C11051.8 2235.82 11019.1 2234.82 11005.2 2259.94L10909.4 2433.09C10895.5 2458.21 10862.8 2457.2 10850.1 2431.27L10717.6 2160.23C10704.9 2134.29 10672.2 2133.28 10658.3 2158.41L10557.9 2339.73C10544 2364.85 10511.3 2363.85 10498.6 2337.91L10279.3 1889.36C10266.6 1863.43 10233.9 1862.42 10220 1887.54L9941.25 2391.05C9927.34 2416.17 9894.65 2415.17 9881.97 2389.23L9770 2160.2C9757.31 2134.26 9724.63 2133.26 9710.72 2158.38L9492.13 2553.19C9478.22 2578.31 9445.53 2577.31 9432.85 2551.37L9359.08 2400.49C9346.41 2374.55 9313.71 2373.55 9299.8 2398.67C9285.89 2423.8 9253.2 2422.79 9240.51 2396.85L9124.81 2160.2C9112.14 2134.26 9079.44 2133.26 9065.53 2158.38L9001.42 2274.18C8987.51 2299.3 8954.82 2298.3 8942.13 2272.36L8887.29 2160.2C8874.62 2134.26 8841.92 2133.26 8828.01 2158.38L8704.91 2380.73C8691 2405.85 8658.31 2404.85 8645.63 2378.91L8588.34 2261.74C8575.67 2235.8 8542.97 2234.79 8529.06 2259.91L8433.19 2433.06C8419.28 2458.18 8386.59 2457.18 8373.91 2431.24L8241.39 2160.2C8228.72 2134.26 8196.02 2133.26 8182.11 2158.38L7801.95 2845.03C7787.62 2870.91 7804.09 2904.47 7831.11 2904.47H18054.6C18081.8 2904.45 18098.3 2870.89 18084 2845.03Z" fill="#404693"/>
<path d="M18084 2845.03L17703.8 2158.38C17689.9 2133.26 17657.2 2134.26 17644.5 2160.2L17512 2431.24C17499.3 2457.18 17466.6 2458.18 17452.7 2433.06L17356.8 2259.91C17342.9 2234.79 17310.2 2235.8 17297.6 2261.74L17240.3 2378.91C17227.6 2404.85 17194.9 2405.85 17181 2380.73L17057.9 2158.38C17044 2133.26 17011.3 2134.26 16998.6 2160.2L16943.8 2272.36C16931.1 2298.3 16898.4 2299.3 16884.5 2274.18L16820.4 2158.38C16806.4 2133.26 16773.8 2134.26 16761.1 2160.2L16645.4 2396.85C16632.7 2422.79 16600 2423.8 16586.1 2398.67C16572.2 2373.55 16539.5 2374.55 16526.8 2400.49L16453 2551.37C16440.4 2577.31 16407.7 2578.31 16393.8 2553.19L16175.2 2158.38C16161.3 2133.26 16128.6 2134.26 16115.9 2160.2L16003.9 2389.23C15991.2 2415.17 15958.5 2416.17 15944.6 2391.05L15665.9 1887.54C15652 1862.42 15619.3 1863.43 15606.6 1889.36L15387.3 2337.91C15374.6 2363.85 15341.9 2364.85 15328 2339.73L15227.6 2158.41C15213.7 2133.28 15181 2134.29 15168.3 2160.23L15035.8 2431.27C15023.1 2457.2 14990.4 2458.21 14976.5 2433.09L14880.7 2259.94C14866.7 2234.82 14834.1 2235.82 14821.4 2261.76L14764.1 2378.94C14751.4 2404.88 14718.7 2405.88 14704.8 2380.76L14581.7 2158.41C14567.8 2133.28 14535.1 2134.29 14522.4 2160.23L14467.6 2272.38C14454.9 2298.32 14422.2 2299.33 14408.3 2274.2L14344.2 2158.41C14330.3 2133.28 14297.6 2134.29 14284.9 2160.23L14169.2 2396.88C14156.5 2422.82 14123.8 2423.82 14109.9 2398.7C14096 2373.58 14063.3 2374.58 14050.6 2400.52L13976.9 2551.39C13964.2 2577.33 13931.5 2578.34 13917.6 2553.21L13699 2158.41C13685.1 2133.28 13652.4 2134.29 13639.7 2160.23L13527.7 2389.26C13515.1 2415.2 13482.4 2416.2 13468.5 2391.08L13189.7 1887.57C13175.8 1862.45 13143.1 1863.45 13130.4 1889.39L12942.9 2272.82L12755.5 1889.39C12742.8 1863.45 12710.1 1862.45 12696.2 1887.57L12417.4 2391.08C12403.5 2416.2 12370.8 2415.2 12358.1 2389.26L12246.2 2160.23C12233.5 2134.29 12200.8 2133.28 12186.9 2158.41L11968.3 2553.21C11954.4 2578.34 11921.7 2577.33 11909 2551.39L11835.3 2400.52C11822.6 2374.58 11789.9 2373.58 11776 2398.7C11762.1 2423.82 11729.4 2422.82 11716.7 2396.88L11601 2160.23C11588.3 2134.29 11555.6 2133.28 11541.7 2158.41L11477.6 2274.2C11463.7 2299.33 11431 2298.32 11418.3 2272.38L11363.5 2160.23C11350.8 2134.29 11318.1 2133.28 11304.2 2158.41L11181.1 2380.76C11167.2 2405.88 11134.5 2404.88 11121.8 2378.94L11064.5 2261.76C11051.8 2235.82 11019.1 2234.82 11005.2 2259.94L10909.4 2433.09C10895.5 2458.21 10862.8 2457.2 10850.1 2431.27L10717.6 2160.23C10704.9 2134.29 10672.2 2133.28 10658.3 2158.41L10557.9 2339.73C10544 2364.85 10511.3 2363.85 10498.6 2337.91L10279.3 1889.36C10266.6 1863.43 10233.9 1862.42 10220 1887.54L9941.25 2391.05C9927.34 2416.17 9894.65 2415.17 9881.97 2389.23L9770 2160.2C9757.31 2134.26 9724.63 2133.26 9710.72 2158.38L9492.13 2553.19C9478.22 2578.31 9445.53 2577.31 9432.85 2551.37L9359.08 2400.49C9346.41 2374.55 9313.71 2373.55 9299.8 2398.67C9285.89 2423.8 9253.2 2422.79 9240.51 2396.85L9124.81 2160.2C9112.14 2134.26 9079.44 2133.26 9065.53 2158.38L9001.42 2274.18C8987.51 2299.3 8954.82 2298.3 8942.13 2272.36L8887.29 2160.2C8874.62 2134.26 8841.92 2133.26 8828.01 2158.38L8704.91 2380.73C8691 2405.85 8658.31 2404.85 8645.63 2378.91L8588.34 2261.74C8575.67 2235.8 8542.97 2234.79 8529.06 2259.91L8433.19 2433.06C8419.28 2458.18 8386.59 2457.18 8373.91 2431.24L8241.39 2160.2C8228.72 2134.26 8196.02 2133.26 8182.11 2158.38L7801.95 2845.03C7787.62 2870.91 7804.09 2904.47 7831.11 2904.47H18054.6C18081.8 2904.45 18098.3 2870.89 18084 2845.03Z" stroke="#140E3C" stroke-width="3" stroke-miterlimit="10" stroke-linecap="round" stroke-linejoin="round"/>
<path d="M8283.24 2845.03L7903.08 2158.37C7889.17 2133.25 7856.48 2134.25 7843.8 2160.19L7711.28 2431.23C7698.61 2457.17 7665.91 2458.17 7652 2433.05L7556.13 2259.9C7542.22 2234.78 7509.53 2235.78 7496.85 2261.72L7439.56 2378.9C7426.89 2404.84 7394.19 2405.84 7380.28 2380.72L7257.18 2158.37C7243.27 2133.25 7210.58 2134.25 7197.9 2160.19L7143.06 2272.34C7130.38 2298.28 7097.68 2299.29 7083.77 2274.16L7019.66 2158.37C7005.75 2133.25 6973.06 2134.25 6960.38 2160.19L6844.67 2396.84C6832 2422.78 6799.3 2423.78 6785.39 2398.66C6771.48 2373.54 6738.79 2374.54 6726.1 2400.48L6652.34 2551.36C6639.67 2577.29 6606.97 2578.3 6593.06 2553.18L6374.47 2158.37C6360.56 2133.25 6327.87 2134.25 6315.19 2160.19L6203.22 2389.22C6190.55 2415.16 6157.85 2416.16 6143.94 2391.04L5865.17 1887.53C5851.26 1862.41 5818.57 1863.41 5805.88 1889.35L5586.59 2337.89C5573.91 2363.83 5541.21 2364.84 5527.3 2339.71L5426.91 2158.39C5413 2133.27 5380.31 2134.28 5367.62 2160.21L5235.11 2431.25C5222.43 2457.19 5189.73 2458.2 5175.83 2433.07L5079.96 2259.93C5066.05 2234.8 5033.36 2235.81 5020.67 2261.75L4963.39 2378.92C4950.71 2404.86 4918.01 2405.87 4904.1 2380.74L4781 2158.39C4767.09 2133.27 4734.4 2134.28 4721.71 2160.21L4666.87 2272.37C4654.2 2298.31 4621.5 2299.31 4607.59 2274.19L4543.48 2158.39C4529.57 2133.27 4496.88 2134.28 4484.19 2160.21L4368.49 2396.87C4355.82 2422.8 4323.12 2423.81 4309.21 2398.69C4295.3 2373.56 4262.61 2374.57 4249.92 2400.51L4176.16 2551.38C4163.48 2577.32 4130.78 2578.32 4116.87 2553.2L3898.29 2158.39C3884.38 2133.27 3851.69 2134.28 3839 2160.21L3727.04 2389.24C3714.36 2415.18 3681.66 2416.19 3667.75 2391.06L3389.08 1887.52C3375.17 1862.4 3342.48 1863.4 3329.8 1889.34L2861.67 2846.84C2849.02 2872.73 2865.6 2904.45 2891.78 2904.45H8254.07C8281.09 2904.45 8297.56 2870.89 8283.24 2845.03Z" fill="#404693"/>
<path d="M8283.24 2845.03L7903.08 2158.37C7889.17 2133.25 7856.48 2134.25 7843.8 2160.19L7711.28 2431.23C7698.61 2457.17 7665.91 2458.17 7652 2433.05L7556.13 2259.9C7542.22 2234.78 7509.53 2235.78 7496.85 2261.72L7439.56 2378.9C7426.89 2404.84 7394.19 2405.84 7380.28 2380.72L7257.18 2158.37C7243.27 2133.25 7210.58 2134.25 7197.9 2160.19L7143.06 2272.34C7130.38 2298.28 7097.68 2299.29 7083.77 2274.16L7019.66 2158.37C7005.75 2133.25 6973.06 2134.25 6960.38 2160.19L6844.67 2396.84C6832 2422.78 6799.3 2423.78 6785.39 2398.66C6771.48 2373.54 6738.79 2374.54 6726.1 2400.48L6652.34 2551.36C6639.67 2577.29 6606.97 2578.3 6593.06 2553.18L6374.47 2158.37C6360.56 2133.25 6327.87 2134.25 6315.19 2160.19L6203.22 2389.22C6190.55 2415.16 6157.85 2416.16 6143.94 2391.04L5865.17 1887.53C5851.26 1862.41 5818.57 1863.41 5805.88 1889.35L5586.59 2337.89C5573.91 2363.83 5541.21 2364.84 5527.3 2339.71L5426.91 2158.39C5413 2133.27 5380.31 2134.28 5367.62 2160.21L5235.11 2431.25C5222.43 2457.19 5189.73 2458.2 5175.83 2433.07L5079.96 2259.93C5066.05 2234.8 5033.36 2235.81 5020.67 2261.75L4963.39 2378.92C4950.71 2404.86 4918.01 2405.87 4904.1 2380.74L4781 2158.39C4767.09 2133.27 4734.4 2134.28 4721.71 2160.21L4666.87 2272.37C4654.2 2298.31 4621.5 2299.31 4607.59 2274.19L4543.48 2158.39C4529.57 2133.27 4496.88 2134.28 4484.19 2160.21L4368.49 2396.87C4355.82 2422.8 4323.12 2423.81 4309.21 2398.69C4295.3 2373.56 4262.61 2374.57 4249.92 2400.51L4176.16 2551.38C4163.48 2577.32 4130.78 2578.32 4116.87 2553.2L3898.29 2158.39C3884.38 2133.27 3851.69 2134.28 3839 2160.21L3727.04 2389.24C3714.36 2415.18 3681.66 2416.19 3667.75 2391.06L3389.08 1887.52C3375.17 1862.4 3342.48 1863.4 3329.8 1889.34L2861.67 2846.84C2849.02 2872.73 2865.6 2904.45 2891.78 2904.45H8254.07C8281.09 2904.45 8297.56 2870.89 8283.24 2845.03Z" stroke="#140E3C" stroke-width="3" stroke-miterlimit="10" stroke-linecap="round" stroke-linejoin="round"/>
</g>
<defs>
<clipPath id="clip0">
<rect width="21000" height="3000" fill="white"/>
</clipPath>
</defs>
</svg>
