<svg width="21000" height="3000" viewBox="0 0 21000 3000" fill="none" xmlns="http://www.w3.org/2000/svg">
<g clip-path="url(#clip0)">
<path d="M7536.46 973.642V1123.12L7343.53 967.515C7294.33 927.841 7214.57 927.841 7165.38 967.515C7140.75 987.377 7128.45 1013.42 7128.49 1039.46C7128.45 1065.49 7140.74 1091.55 7165.38 1111.41L7499.51 1380.9L7499.62 1380.89C7523.99 1400.55 7536.26 1426.28 7536.48 1452.05V1452.53V1452.74V1703.71L7343.55 1548.1C7294.34 1508.41 7214.58 1508.41 7165.39 1548.09C7116.19 1587.77 7116.2 1652.1 7165.39 1691.78L7499.52 1961.27L7499.63 1961.26C7524.01 1980.92 7536.28 2006.65 7536.49 2032.42V2033.11V2467.29V2467.51V3047.88H7536.54H7788.45H7788.5V2467.51V2467.29V2033.11V2032.42C7788.71 2006.65 7800.98 1980.93 7825.36 1961.26L7825.47 1961.27L8159.6 1691.78C8208.79 1652.1 8208.79 1587.77 8159.6 1548.09C8110.41 1508.41 8030.63 1508.41 7981.44 1548.1L7788.51 1703.71V1452.74V1452.53V1452.05C7788.73 1426.28 7801 1400.56 7825.37 1380.89L7825.48 1380.9L8159.61 1111.41C8184.25 1091.55 8196.53 1065.49 8196.5 1039.46C8196.53 1012.95 8183.79 986.448 8158.27 966.46C8108.54 927.515 8028.45 929.624 7979.43 969.16L7788.53 1123.13V973.654C7788.53 917.395 7731.85 871.845 7662.1 872.034C7592.61 872.222 7536.46 917.659 7536.46 973.642Z" fill="#1C1F4E" stroke="#140E3C" stroke-width="3" stroke-miterlimit="10" stroke-linecap="round" stroke-linejoin="round"/>
<path d="M1666.98 973.642V1123.12L1474.05 967.515C1424.84 927.841 1345.08 927.841 1295.89 967.515C1271.27 987.377 1258.97 1013.42 1259 1039.46C1258.97 1065.49 1271.25 1091.55 1295.89 1111.41L1630.02 1380.9L1630.13 1380.89C1654.51 1400.55 1666.77 1426.28 1666.99 1452.05V1452.53V1452.74V1703.71L1474.06 1548.1C1424.86 1508.41 1345.1 1508.41 1295.91 1548.09C1246.7 1587.77 1246.72 1652.1 1295.91 1691.78L1630.04 1961.27L1630.15 1961.26C1654.52 1980.92 1666.79 2006.65 1667.01 2032.42V2033.11V2467.29V2467.51V3047.88H1667.05H1918.96H1919.01V2467.51V2467.29V2033.11V2032.42C1919.23 2006.65 1931.49 1980.93 1955.87 1961.26L1955.98 1961.27L2290.11 1691.78C2339.3 1652.1 2339.3 1587.77 2290.11 1548.09C2240.92 1508.41 2161.14 1508.41 2111.95 1548.1L1919.03 1703.71V1452.74V1452.53V1452.05C1919.24 1426.28 1931.51 1400.56 1955.89 1380.89L1956 1380.9L2290.13 1111.41C2314.77 1091.55 2327.05 1065.49 2327.02 1039.46C2327.05 1012.95 2314.3 986.448 2288.79 966.46C2239.05 927.515 2158.96 929.624 2109.95 969.16L1919.04 1123.13V973.654C1919.04 917.395 1862.36 871.845 1792.61 872.034C1723.12 872.222 1666.98 917.659 1666.98 973.642Z" fill="#1C1F4E" stroke="#140E3C" stroke-width="3" stroke-miterlimit="10" stroke-linecap="round" stroke-linejoin="round"/>
<path d="M12815.5 973.642V1123.12L12622.5 967.515C12573.3 927.841 12493.5 927.841 12444.4 967.515C12419.7 987.377 12407.4 1013.42 12407.5 1039.46C12407.4 1065.49 12419.7 1091.55 12444.4 1111.41L12778.5 1380.9L12778.6 1380.89C12803 1400.55 12815.2 1426.28 12815.5 1452.05V1452.53V1452.74V1703.71L12622.5 1548.1C12573.3 1508.41 12493.5 1508.41 12444.4 1548.09C12395.1 1587.77 12395.2 1652.1 12444.4 1691.78L12778.5 1961.27L12778.6 1961.26C12803 1980.92 12815.2 2006.65 12815.5 2032.42V2033.11V2467.29V2467.51V3047.88H12815.5H13067.4H13067.5V2467.51V2467.29V2033.11V2032.42C13067.7 2006.65 13079.9 1980.93 13104.3 1961.26L13104.4 1961.27L13438.6 1691.78C13487.8 1652.1 13487.8 1587.77 13438.6 1548.09C13389.4 1508.41 13309.6 1508.41 13260.4 1548.1L13067.5 1703.71V1452.74V1452.53V1452.05C13067.7 1426.28 13080 1400.56 13104.3 1380.89L13104.4 1380.9L13438.6 1111.41C13463.2 1091.55 13475.5 1065.49 13475.5 1039.46C13475.5 1012.95 13462.7 986.448 13437.2 966.46C13387.5 927.515 13307.4 929.624 13258.4 969.16L13067.5 1123.13V973.654C13067.5 917.395 13010.8 871.845 12941.1 872.034C12871.6 872.222 12815.5 917.659 12815.5 973.642Z" fill="#1C1F4E" stroke="#140E3C" stroke-width="3" stroke-miterlimit="10" stroke-linecap="round" stroke-linejoin="round"/>
<path d="M9468.91 -530.68V-272.787L9136.05 -541.251C9051.17 -609.702 8913.56 -609.702 8828.68 -541.251C8786.2 -506.976 8764.98 -462.054 8765.03 -417.132C8764.97 -372.21 8786.17 -327.263 8828.68 -293L9405.13 171.951L9405.3 171.926C9447.36 205.85 9468.52 250.232 9468.89 294.689V295.518V295.882V728.856L9136.04 460.391C9051.15 391.928 8913.55 391.928 8828.67 460.366C8743.78 528.829 8743.78 639.828 8828.67 708.278L9405.11 1173.23L9405.29 1173.2C9447.35 1207.13 9468.5 1251.51 9468.87 1295.97V1297.16V2046.22V2046.58V3047.88H9468.94H9903.55H9903.62V2046.58V2046.22V1297.16V1295.97C9904 1251.51 9925.15 1207.13 9967.21 1173.2L9967.38 1173.23L10543.8 708.278C10628.7 639.828 10628.7 528.841 10543.8 460.366C10459 391.916 10321.3 391.916 10236.5 460.391L9903.61 728.856V295.895V295.531V294.702C9903.98 250.245 9925.14 205.862 9967.2 171.939L9967.37 171.964L10543.8 -292.988C10586.3 -327.263 10607.5 -372.21 10607.5 -417.132C10607.5 -462.858 10585.5 -508.596 10541.5 -543.072C10455.7 -610.267 10317.5 -606.613 10233 -538.414L9903.61 -272.774V-530.68C9903.61 -627.743 9805.84 -706.338 9685.49 -705.999C9565.79 -705.672 9468.91 -627.266 9468.91 -530.68Z" fill="#1C1F4E" stroke="#140E3C" stroke-width="3" stroke-miterlimit="10" stroke-linecap="round" stroke-linejoin="round"/>
<path d="M9682.63 1858.52C9763.64 1858.52 9829.31 1805.55 9829.31 1740.22C9829.31 1674.88 9763.64 1621.91 9682.63 1621.91C9601.62 1621.91 9535.95 1674.88 9535.95 1740.22C9535.95 1805.55 9601.62 1858.52 9682.63 1858.52Z" fill="#000002" stroke="#140E3C" stroke-width="3" stroke-miterlimit="10" stroke-linecap="round" stroke-linejoin="round"/>
<path d="M9642.76 1731.45C9623.63 1716.02 9587.52 1707.76 9587.52 1707.76C9587.52 1707.76 9597.76 1736.89 9616.9 1752.32C9636.03 1767.75 9672.14 1776.01 9672.14 1776.01C9672.14 1776.01 9661.9 1746.88 9642.76 1731.45Z" fill="white" stroke="#000002" stroke-width="3" stroke-miterlimit="10" stroke-linecap="round" stroke-linejoin="round"/>
<path d="M9659.58 1750.94C9651.17 1753.67 9644.46 1759.1 9641.05 1765.88C9656.95 1772.53 9672.12 1776.01 9672.12 1776.01C9672.12 1776.01 9667.83 1763.76 9659.58 1750.94Z" fill="#DE9C26" stroke="#000002" stroke-width="3" stroke-miterlimit="10" stroke-linecap="round" stroke-linejoin="round"/>
<path d="M9756.37 1752.31C9775.5 1736.88 9785.74 1707.75 9785.74 1707.75C9785.74 1707.75 9749.63 1716.01 9730.5 1731.44C9711.37 1746.87 9701.12 1776 9701.12 1776C9701.12 1776 9737.24 1767.74 9756.37 1752.31Z" fill="white" stroke="#000002" stroke-width="3" stroke-miterlimit="10" stroke-linecap="round" stroke-linejoin="round"/>
<path d="M9732.21 1765.88C9728.82 1759.1 9722.09 1753.69 9713.69 1750.94C9705.44 1763.76 9701.12 1776 9701.12 1776C9701.12 1776 9716.32 1772.52 9732.21 1765.88Z" fill="#DE9C26" stroke="#000002" stroke-width="3" stroke-miterlimit="10" stroke-linecap="round" stroke-linejoin="round"/>
<path d="M14671.9 -530.68V-272.787L14339.1 -541.251C14254.2 -609.702 14116.6 -609.702 14031.7 -541.251C13989.2 -506.976 13968 -462.054 13968 -417.132C13968 -372.21 13989.2 -327.263 14031.7 -293L14608.1 171.951L14608.3 171.926C14650.4 205.85 14671.5 250.232 14671.9 294.689V295.518V295.882V728.856L14339.1 460.391C14254.2 391.928 14116.6 391.928 14031.7 460.366C13946.8 528.829 13946.8 639.828 14031.7 708.278L14608.1 1173.23L14608.3 1173.2C14650.4 1207.13 14671.5 1251.51 14671.9 1295.97V1297.16V2046.22V2046.58V3047.88H14672H15106.6H15106.6V2046.58V2046.22V1297.16V1295.97C15107 1251.51 15128.2 1207.13 15170.2 1173.2L15170.4 1173.23L15746.9 708.278C15831.7 639.828 15831.7 528.841 15746.9 460.366C15662 391.916 15524.4 391.916 15439.5 460.391L15106.6 728.856V295.895V295.531V294.702C15107 250.245 15128.2 205.862 15170.2 171.939L15170.4 171.964L15746.8 -292.988C15789.3 -327.263 15810.5 -372.21 15810.5 -417.132C15810.5 -462.858 15788.6 -508.596 15744.5 -543.072C15658.7 -610.267 15520.5 -606.613 15436 -538.414L15106.6 -272.774V-530.68C15106.6 -627.743 15008.9 -706.338 14888.5 -705.999C14768.8 -705.672 14671.9 -627.266 14671.9 -530.68Z" fill="#1C1F4E" stroke="#140E3C" stroke-width="3" stroke-miterlimit="10" stroke-linecap="round" stroke-linejoin="round"/>
<path d="M18918.2 -530.68V-272.787L18585.3 -541.251C18500.4 -609.702 18362.8 -609.702 18277.9 -541.251C18235.5 -506.976 18214.2 -462.054 18214.3 -417.132C18214.2 -372.21 18235.4 -327.263 18277.9 -293L18854.4 171.951L18854.6 171.926C18896.6 205.85 18917.8 250.232 18918.2 294.689V295.518V295.882V728.856L18585.3 460.391C18500.4 391.928 18362.8 391.928 18277.9 460.366C18193 528.829 18193 639.828 18277.9 708.278L18854.4 1173.23L18854.5 1173.2C18896.6 1207.13 18917.8 1251.51 18918.1 1295.97V1297.16V2046.22V2046.58V3047.88H18918.2H19352.8H19352.9V2046.58V2046.22V1297.16V1295.97C19353.3 1251.51 19374.4 1207.13 19416.5 1173.2L19416.6 1173.23L19993.1 708.278C20078 639.828 20078 528.841 19993.1 460.366C19908.2 391.916 19770.6 391.916 19685.7 460.391L19352.9 728.856V295.895V295.531V294.702C19353.2 250.245 19374.4 205.862 19416.5 171.939L19416.6 171.964L19993.1 -292.988C20035.6 -327.263 20056.8 -372.21 20056.7 -417.132C20056.8 -462.858 20034.8 -508.596 19990.8 -543.072C19905 -610.267 19766.8 -606.613 19682.2 -538.414L19352.9 -272.774V-530.68C19352.9 -627.743 19255.1 -706.338 19134.8 -705.999C19015 -705.672 18918.2 -627.266 18918.2 -530.68Z" fill="#1C1F4E" stroke="#140E3C" stroke-width="3" stroke-miterlimit="10" stroke-linecap="round" stroke-linejoin="round"/>
<path d="M16317 1283.29C16317 1277.41 16311.1 1272.64 16303.8 1272.64H16185.1C16185.1 1272.64 16185.1 1272.64 16185.1 1272.64C16181.8 1272.64 16178.4 1271.6 16175.8 1269.53V1269.51L16140.8 1241.28C16135.6 1237.12 16127.3 1237.12 16122.1 1241.28C16117 1245.43 16117 1252.18 16122.1 1256.33L16155.5 1283.29L16122.1 1310.24C16117 1314.4 16117 1321.14 16122.1 1325.3C16127.3 1329.45 16135.6 1329.45 16140.8 1325.3L16175.8 1297.06V1297.05C16178.4 1294.98 16181.7 1293.93 16185.1 1293.93C16185.1 1293.93 16185.1 1293.93 16185.1 1293.93H16303.8C16311.1 1293.95 16317 1289.18 16317 1283.29C16317 1283.3 16317 1283.3 16317 1283.29Z" fill="#54BE90"/>
<path d="M16317 1283.29C16317 1277.41 16311.1 1272.64 16303.8 1272.64H16185.1C16185.1 1272.64 16185.1 1272.64 16185.1 1272.64C16181.8 1272.64 16178.4 1271.6 16175.8 1269.53V1269.51L16140.8 1241.28C16135.6 1237.12 16127.3 1237.12 16122.1 1241.28C16117 1245.43 16117 1252.18 16122.1 1256.33L16155.5 1283.29L16122.1 1310.24C16117 1314.4 16117 1321.14 16122.1 1325.3C16127.3 1329.45 16135.6 1329.45 16140.8 1325.3L16175.8 1297.06V1297.05C16178.4 1294.98 16181.7 1293.93 16185.1 1293.93C16185.1 1293.93 16185.1 1293.93 16185.1 1293.93H16303.8C16311.1 1293.95 16317 1289.18 16317 1283.29ZM16317 1283.29C16317 1283.3 16317 1283.3 16317 1283.29Z" stroke="#140E3C" stroke-width="3" stroke-miterlimit="10" stroke-linecap="round" stroke-linejoin="round"/>
<path d="M16416.5 1169.96C16408.5 1167.6 16399.7 1170.92 16396.8 1177.37L16355.7 1267.88C16352.8 1274.34 16356.9 1281.48 16364.9 1283.84C16372.9 1286.2 16381.7 1282.89 16384.6 1276.43L16425.7 1185.92C16428.7 1179.47 16424.5 1172.33 16416.5 1169.96Z" fill="#54BE90" stroke="#140E3C" stroke-width="3" stroke-miterlimit="10" stroke-linecap="round" stroke-linejoin="round"/>
<path d="M16358.6 1152.85C16350.6 1150.49 16341.8 1153.81 16338.8 1160.26L16297.8 1250.77C16294.8 1257.22 16298.9 1264.37 16306.9 1266.73C16314.9 1269.09 16323.8 1265.77 16326.7 1259.32L16367.8 1168.81C16370.7 1162.36 16366.6 1155.23 16358.6 1152.85Z" fill="#54BE90" stroke="#140E3C" stroke-width="3" stroke-miterlimit="10" stroke-linecap="round" stroke-linejoin="round"/>
<path d="M16387.6 1161.42C16379.6 1159.06 16370.7 1162.37 16367.8 1168.82L16326.7 1259.33C16323.8 1265.79 16327.9 1272.93 16335.9 1275.29C16343.9 1277.65 16352.8 1274.34 16355.7 1267.88L16396.8 1177.37C16399.7 1170.92 16395.6 1163.78 16387.6 1161.42Z" fill="#54BE90" stroke="#140E3C" stroke-width="3" stroke-miterlimit="10" stroke-linecap="round" stroke-linejoin="round"/>
<path d="M16568.3 1348.25H16300.4C16256 1348.25 16219.9 1319.17 16219.9 1283.29C16219.9 1247.42 16255.9 1218.33 16300.4 1218.33H16568.3V1348.25Z" fill="#DE9C26" stroke="#140E3C" stroke-width="3" stroke-miterlimit="10" stroke-linecap="round" stroke-linejoin="round"/>
<path d="M16301.2 1313.52C16323.6 1313.52 16341.8 1298.89 16341.8 1280.84C16341.8 1262.79 16323.6 1248.16 16301.2 1248.16C16278.9 1248.16 16260.7 1262.79 16260.7 1280.84C16260.7 1298.89 16278.9 1313.52 16301.2 1313.52Z" fill="white" stroke="#140E3C" stroke-width="3" stroke-miterlimit="10" stroke-linecap="round" stroke-linejoin="round"/>
<path d="M16301.2 1293.69C16310 1293.69 16317.2 1287.94 16317.2 1280.84C16317.2 1273.74 16310 1267.98 16301.2 1267.98C16292.4 1267.98 16285.3 1273.74 16285.3 1280.84C16285.3 1287.94 16292.4 1293.69 16301.2 1293.69Z" fill="#140E3C" stroke="#140E3C" stroke-width="3" stroke-miterlimit="10" stroke-linecap="round" stroke-linejoin="round"/>
<path d="M17132.5 2953.44H16824.5V2823.53H17132.5L17049.8 2888.49L17132.5 2953.44Z" fill="#DE9C26" stroke="#140E3C" stroke-width="3" stroke-miterlimit="10" stroke-linecap="round" stroke-linejoin="round"/>
<path d="M16895.3 3269.99L16895.4 1638.33V1638.02V1006.44V1005.43C16895.7 967.942 16913.5 930.527 16949 901.915L16949.1 901.927L17435.2 509.896C17506.7 452.18 17506.7 358.595 17435.2 300.866C17363.6 243.151 17247.6 243.151 17176 300.879L16895.4 527.234V162.183V161.869V161.166C16895.7 123.677 16913.5 86.2628 16949 57.6498L16949.1 57.6624L17435.2 -334.369C17471 -363.271 17488.9 -401.162 17488.8 -439.041C17488.9 -477.597 17470.3 -516.154 17433.2 -545.232C17360.9 -601.893 17244.4 -598.817 17173 -541.302L16895.3 -317.32V-534.761C16895.3 -616.607 16812.9 -682.873 16711.4 -682.584C16610.5 -682.308 16528.8 -616.205 16528.8 -534.761V-317.32L16248.1 -543.675C16176.6 -601.39 16060.5 -601.39 15989 -543.675C15953.1 -514.773 15935.3 -476.894 15935.3 -439.028C15935.3 -401.15 15953.1 -363.259 15989 -334.357L16475 57.6749L16475.2 57.6624C16510.6 86.2753 16528.5 123.689 16528.8 161.179V161.882V162.183V527.247L16248.1 300.891C16176.6 243.163 16060.5 243.163 15989 300.879C15917.4 358.607 15917.4 452.193 15989 509.908L16475 901.94L16475.2 901.927C16510.6 930.54 16528.5 967.954 16528.8 1005.44V1006.45V1638.03V1638.34V3270H16528.8H16895.3V3269.99Z" fill="#1C1F4E" stroke="#140E3C" stroke-width="3" stroke-miterlimit="10" stroke-linecap="round" stroke-linejoin="round"/>
<path d="M16528.7 1799.97C16444.4 1799.97 16376.1 1744.85 16376.1 1676.86C16376.1 1608.88 16444.4 1553.76 16528.7 1553.76H16895.2V1437.48C16979.5 1437.48 17047.8 1492.59 17047.8 1560.58C17047.8 1628.56 16979.5 1683.68 16895.2 1683.68H16528.7V1799.97Z" fill="#DE9C26" stroke="#140E3C" stroke-width="3" stroke-miterlimit="10" stroke-linecap="round" stroke-linejoin="round"/>
<path opacity="0.1" d="M16895.2 1683.67H16528.7V1725.73H16895.2V1683.67Z" fill="#140E3C" stroke="#140E3C" stroke-width="3" stroke-miterlimit="10" stroke-linecap="round" stroke-linejoin="round"/>
<path d="M16528.7 2251.67C16444.4 2251.67 16376.1 2196.55 16376.1 2128.57C16376.1 2060.58 16444.4 2005.47 16528.7 2005.47H16895.2V1889.18C16979.5 1889.18 17047.8 1944.3 17047.8 2012.28C17047.8 2080.27 16979.5 2135.39 16895.2 2135.39H16528.7V2251.67Z" fill="#DE9C26" stroke="#140E3C" stroke-width="3" stroke-miterlimit="10" stroke-linecap="round" stroke-linejoin="round"/>
<path opacity="0.1" d="M16895.2 2135.39H16528.7V2177.45H16895.2V2135.39Z" fill="#140E3C" stroke="#140E3C" stroke-width="3" stroke-miterlimit="10" stroke-linecap="round" stroke-linejoin="round"/>
<path d="M16528.7 2703.39C16444.4 2703.39 16376.1 2648.27 16376.1 2580.29C16376.1 2512.3 16444.4 2457.19 16528.7 2457.19H16895.2V2340.9C16979.5 2340.9 17047.8 2396.02 17047.8 2464C17047.8 2531.99 16979.5 2587.1 16895.2 2587.1H16528.7V2703.39Z" fill="#DE9C26" stroke="#140E3C" stroke-width="3" stroke-miterlimit="10" stroke-linecap="round" stroke-linejoin="round"/>
<path opacity="0.1" d="M16895.2 2587.1H16528.7V2629.16H16895.2V2587.1Z" fill="#140E3C" stroke="#140E3C" stroke-width="3" stroke-miterlimit="10" stroke-linecap="round" stroke-linejoin="round"/>
</g>
<defs>
<clipPath id="clip0">
<rect width="21000" height="3000" fill="white"/>
</clipPath>
</defs>
</svg>
